<mxfile host="app.diagrams.net" agent="Mozilla/5.0 (Macintosh; Intel Mac OS X 10_15_7) AppleWebKit/605.1.15 (KHTML, like Gecko) Version/18.6 Safari/605.1.15" version="28.1.1">
  <diagram name="Page-1" id="nbcLEyuHgF4mKDEu06tl">
    <mxGraphModel dx="699" dy="912" grid="1" gridSize="10" guides="1" tooltips="1" connect="1" arrows="1" fold="1" page="1" pageScale="1" pageWidth="850" pageHeight="1100" math="0" shadow="0">
      <root>
        <mxCell id="0" />
        <mxCell id="1" parent="0" />
        <mxCell id="4HdtmGUAHMXCHLeFPbN6-7" value="&lt;span style=&quot;font-size: 20px;&quot;&gt;Channels&amp;nbsp;&lt;/span&gt;" style="rounded=0;whiteSpace=wrap;html=1;align=right;fillColor=none;strokeColor=none;" parent="1" vertex="1">
          <mxGeometry x="210" y="910" width="370" height="80" as="geometry" />
        </mxCell>
        <mxCell id="4HdtmGUAHMXCHLeFPbN6-6" value="&lt;font style=&quot;font-size: 20px;&quot;&gt;Processors&lt;/font&gt;&amp;nbsp;&amp;nbsp;" style="rounded=0;whiteSpace=wrap;html=1;align=right;fillColor=none;strokeColor=none;" parent="1" vertex="1">
          <mxGeometry x="230" y="865" width="350" height="80" as="geometry" />
        </mxCell>
        <mxCell id="4HdtmGUAHMXCHLeFPbN6-5" value="&lt;span style=&quot;font-size: 20px;&quot;&gt;Runners&lt;/span&gt;&amp;nbsp;&amp;nbsp;" style="rounded=0;whiteSpace=wrap;html=1;align=right;fillColor=none;strokeColor=none;" parent="1" vertex="1">
          <mxGeometry x="240" y="750" width="340" height="80" as="geometry" />
        </mxCell>
        <mxCell id="4HdtmGUAHMXCHLeFPbN6-2" value="&lt;font style=&quot;font-size: 20px;&quot;&gt;Orchestrator&lt;/font&gt;&amp;nbsp;&amp;nbsp;" style="rounded=0;whiteSpace=wrap;html=1;align=right;fillColor=none;strokeColor=none;" parent="1" vertex="1">
          <mxGeometry x="230" y="635" width="350" height="80" as="geometry" />
        </mxCell>
        <mxCell id="HYHkahuy0YCJHfaRvets-11" value="Orchestrator" style="ellipse;shape=cloud;whiteSpace=wrap;html=1;fillColor=#e1d5e7;strokeColor=#9673a6;" parent="1" vertex="1">
          <mxGeometry x="280" y="645" width="120" height="70" as="geometry" />
        </mxCell>
        <mxCell id="HYHkahuy0YCJHfaRvets-39" style="edgeStyle=none;rounded=0;orthogonalLoop=1;jettySize=auto;html=1;exitX=0.303;exitY=1.015;exitDx=0;exitDy=0;entryX=0.5;entryY=0;entryDx=0;entryDy=0;startArrow=classic;startFill=1;exitPerimeter=0;" parent="1" source="HYHkahuy0YCJHfaRvets-15" target="HYHkahuy0YCJHfaRvets-17" edge="1">
          <mxGeometry relative="1" as="geometry" />
        </mxCell>
        <mxCell id="HYHkahuy0YCJHfaRvets-40" style="edgeStyle=none;rounded=0;orthogonalLoop=1;jettySize=auto;html=1;exitX=0.703;exitY=1.013;exitDx=0;exitDy=0;entryX=0.5;entryY=0;entryDx=0;entryDy=0;startArrow=classic;startFill=1;exitPerimeter=0;" parent="1" source="HYHkahuy0YCJHfaRvets-15" target="HYHkahuy0YCJHfaRvets-19" edge="1">
          <mxGeometry relative="1" as="geometry" />
        </mxCell>
        <mxCell id="HYHkahuy0YCJHfaRvets-15" value="JavaScript&lt;div&gt;Runner&lt;/div&gt;" style="shape=hexagon;perimeter=hexagonPerimeter2;whiteSpace=wrap;html=1;fixedSize=1;fillColor=#dae8fc;strokeColor=#6c8ebf;" parent="1" vertex="1">
          <mxGeometry x="282.5" y="760" width="115" height="60" as="geometry" />
        </mxCell>
        <mxCell id="HYHkahuy0YCJHfaRvets-23" value="" style="endArrow=classic;startArrow=classic;html=1;rounded=0;exitX=0.5;exitY=0;exitDx=0;exitDy=0;entryX=0.496;entryY=0.954;entryDx=0;entryDy=0;entryPerimeter=0;" parent="1" source="HYHkahuy0YCJHfaRvets-15" target="HYHkahuy0YCJHfaRvets-11" edge="1">
          <mxGeometry width="50" height="50" relative="1" as="geometry">
            <mxPoint x="320" y="810" as="sourcePoint" />
            <mxPoint x="330" y="730" as="targetPoint" />
          </mxGeometry>
        </mxCell>
        <mxCell id="5C-J_NlUfpWpW3xTIV4u-5" value="" style="group" parent="1" vertex="1" connectable="0">
          <mxGeometry x="240" y="880" width="200" height="80" as="geometry" />
        </mxCell>
        <mxCell id="HYHkahuy0YCJHfaRvets-45" style="edgeStyle=orthogonalEdgeStyle;curved=1;rounded=0;orthogonalLoop=1;jettySize=auto;html=1;exitX=0.5;exitY=1;exitDx=0;exitDy=0;entryX=0.25;entryY=1;entryDx=0;entryDy=0;" parent="5C-J_NlUfpWpW3xTIV4u-5" source="HYHkahuy0YCJHfaRvets-17" edge="1">
          <mxGeometry relative="1" as="geometry">
            <Array as="points">
              <mxPoint x="50" y="80" />
              <mxPoint x="125" y="80" />
            </Array>
            <mxPoint x="125" y="50.00000000000023" as="targetPoint" />
          </mxGeometry>
        </mxCell>
        <mxCell id="HYHkahuy0YCJHfaRvets-17" value="HTTP&lt;div&gt;Fetch&lt;/div&gt;" style="shape=parallelogram;perimeter=parallelogramPerimeter;whiteSpace=wrap;html=1;fixedSize=1;fillColor=#dae8fc;strokeColor=#6c8ebf;" parent="5C-J_NlUfpWpW3xTIV4u-5" vertex="1">
          <mxGeometry width="100" height="50" as="geometry" />
        </mxCell>
        <mxCell id="HYHkahuy0YCJHfaRvets-19" value="Logger" style="shape=parallelogram;perimeter=parallelogramPerimeter;whiteSpace=wrap;html=1;fixedSize=1;fillColor=#dae8fc;strokeColor=#6c8ebf;" parent="5C-J_NlUfpWpW3xTIV4u-5" vertex="1">
          <mxGeometry x="100" width="100" height="50" as="geometry" />
        </mxCell>
      </root>
    </mxGraphModel>
  </diagram>
</mxfile>
